<svg width="60" height="60" viewBox="0 0 60 60" fill="none" xmlns="http://www.w3.org/2000/svg">
<g clip-path="url(#clip0_1_2)">
<rect width="60" height="60" fill="#484848"/>
<path d="M8 5C8 3.89543 8.89543 3 10 3V3C11.1046 3 12 3.89543 12 5V20C12 21.1046 11.1046 22 10 22V22C8.89543 22 8 21.1046 8 20V5Z" fill="#9C9C9C"/>
<path d="M8 5C8 3.89543 8.89543 3 10 3V3C11.1046 3 12 3.89543 12 5V20C12 21.1046 11.1046 22 10 22V22C8.89543 22 8 21.1046 8 20V5Z" fill="#9C9C9C"/>
<rect x="48" y="3" width="4" height="19" rx="2" fill="#9C9C9C"/>
<rect x="48" y="3" width="4" height="19" rx="2" fill="#9C9C9C"/>
<rect x="11" y="9" width="38" height="34" rx="3" fill="#D9D9D9"/>
<rect x="13" y="11" width="34" height="30" rx="2" fill="#5A9EBB"/>
<path d="M17 48C17 45.7909 18.7909 44 21 44H39C41.2091 44 43 45.7909 43 48V65C43 67.2091 41.2091 69 39 69H21C18.7909 69 17 67.2091 17 65V48Z" fill="#ADADAD"/>
<rect x="26" y="18.1429" width="10" height="2.14286" transform="rotate(-180 26 18.1429)" fill="#BFFFC9"/>
<rect x="26" y="18.1429" width="10" height="2.14286" transform="rotate(-180 26 18.1429)" fill="#BFFFC9"/>
<rect x="26" y="18.1429" width="10" height="2.14286" transform="rotate(-180 26 18.1429)" fill="#BFFFC9"/>
<rect x="26" y="18.1429" width="10" height="2.14286" transform="rotate(-180 26 18.1429)" fill="#BFFFC9"/>
<rect x="26" y="18.1429" width="10" height="2.14286" transform="rotate(-180 26 18.1429)" fill="#BFFFC9"/>
<rect x="17.0714" y="21" width="1.07143" height="5" transform="rotate(-180 17.0714 21)" fill="#BFFFC9"/>
<rect x="17.0714" y="21" width="1.07143" height="5" transform="rotate(-180 17.0714 21)" fill="#BFFFC9"/>
<rect x="17.0714" y="21" width="1.07143" height="5" transform="rotate(-180 17.0714 21)" fill="#BFFFC9"/>
<rect x="17.0714" y="21" width="1.07143" height="5" transform="rotate(-180 17.0714 21)" fill="#BFFFC9"/>
<rect x="17.0714" y="21" width="1.07143" height="5" transform="rotate(-180 17.0714 21)" fill="#BFFFC9"/>
<rect x="26" y="21" width="1.07143" height="5" transform="rotate(-180 26 21)" fill="#BFFFC9"/>
<rect x="26" y="21" width="1.07143" height="5" transform="rotate(-180 26 21)" fill="#BFFFC9"/>
<rect x="26" y="21" width="1.07143" height="5" transform="rotate(-180 26 21)" fill="#BFFFC9"/>
<rect x="26" y="21" width="1.07143" height="5" transform="rotate(-180 26 21)" fill="#BFFFC9"/>
<rect x="26" y="21" width="1.07143" height="5" transform="rotate(-180 26 21)" fill="#BFFFC9"/>
<rect x="44" y="18.1429" width="10" height="2.14286" transform="rotate(-180 44 18.1429)" fill="#BFFFC9"/>
<rect x="44" y="18.1429" width="10" height="2.14286" transform="rotate(-180 44 18.1429)" fill="#BFFFC9"/>
<rect x="44" y="18.1429" width="10" height="2.14286" transform="rotate(-180 44 18.1429)" fill="#BFFFC9"/>
<rect x="44" y="18.1429" width="10" height="2.14286" transform="rotate(-180 44 18.1429)" fill="#BFFFC9"/>
<rect x="44" y="18.1429" width="10" height="2.14286" transform="rotate(-180 44 18.1429)" fill="#BFFFC9"/>
<rect x="35.0714" y="21" width="1.07143" height="5" transform="rotate(-180 35.0714 21)" fill="#BFFFC9"/>
<rect x="35.0714" y="21" width="1.07143" height="5" transform="rotate(-180 35.0714 21)" fill="#BFFFC9"/>
<rect x="35.0714" y="21" width="1.07143" height="5" transform="rotate(-180 35.0714 21)" fill="#BFFFC9"/>
<rect x="35.0714" y="21" width="1.07143" height="5" transform="rotate(-180 35.0714 21)" fill="#BFFFC9"/>
<rect x="35.0714" y="21" width="1.07143" height="5" transform="rotate(-180 35.0714 21)" fill="#BFFFC9"/>
<rect x="44" y="21" width="1.07143" height="5" transform="rotate(-180 44 21)" fill="#BFFFC9"/>
<rect x="44" y="21" width="1.07143" height="5" transform="rotate(-180 44 21)" fill="#BFFFC9"/>
<rect x="44" y="21" width="1.07143" height="5" transform="rotate(-180 44 21)" fill="#BFFFC9"/>
<rect x="44" y="21" width="1.07143" height="5" transform="rotate(-180 44 21)" fill="#BFFFC9"/>
<rect x="44" y="21" width="1.07143" height="5" transform="rotate(-180 44 21)" fill="#BFFFC9"/>
<rect x="18" y="37" width="24" height="2" fill="#BFFFC9"/>
<rect x="18" y="37" width="24" height="2" fill="#BFFFC9"/>
<rect x="18" y="37" width="24" height="2" fill="#BFFFC9"/>
<rect x="18" y="37" width="24" height="2" fill="#BFFFC9"/>
<rect x="18" y="37" width="24" height="2" fill="#BFFFC9"/>
<path d="M40 33H42V39H40V33Z" fill="#BFFFC9"/>
<path d="M40 33H42V39H40V33Z" fill="#BFFFC9"/>
<path d="M40 33H42V39H40V33Z" fill="#BFFFC9"/>
<path d="M40 33H42V39H40V33Z" fill="#BFFFC9"/>
<path d="M40 33H42V39H40V33Z" fill="#BFFFC9"/>
<rect x="18" y="33" width="2" height="6" fill="#BFFFC9"/>
<rect x="18" y="33" width="2" height="6" fill="#BFFFC9"/>
<rect x="18" y="33" width="2" height="6" fill="#BFFFC9"/>
<rect x="18" y="33" width="2" height="6" fill="#BFFFC9"/>
<rect x="18" y="33" width="2" height="6" fill="#BFFFC9"/>
</g>
<defs>
<clipPath id="clip0_1_2">
<rect width="60" height="60" fill="white"/>
</clipPath>
</defs>
</svg>
